<svg xmlns="http://www.w3.org/2000/svg" viewBox="0 0 320 150" width="320" height="150">
  <defs>
    <linearGradient id="bg" x1="0" y1="0" x2="1" y2="1">
      <stop offset="0" stop-color="#082f49"/><stop offset="1" stop-color="#0f172a"/>
    </linearGradient>
  </defs>
  <rect width="320" height="150" fill="url(#bg)"/>
  <!-- diff gutter -->
  <rect x="16" y="16" width="3" height="118" rx="1.5" fill="#fff" opacity=".08"/>
  <!-- clean lines -->
  <rect x="30" y="20" width="120" height="4" rx="2" fill="#fff" opacity=".2"/>
  <rect x="30" y="32" width="86" height="4" rx="2" fill="#fff" opacity=".2"/>
  <rect x="40" y="44" width="104" height="4" rx="2" fill="#fff" opacity=".2"/>
  <!-- the finding: line marked, with file:line and a fix -->
  <rect x="24" y="56" width="230" height="14" rx="4" fill="#f87171" opacity=".16"/>
  <rect x="24" y="56" width="3" height="14" rx="1.5" fill="#f87171"/>
  <rect x="40" y="61" width="132" height="4" rx="2" fill="#fca5a5" opacity=".85"/>
  <rect x="30" y="78" width="96" height="4" rx="2" fill="#fff" opacity=".2"/>
  <rect x="40" y="90" width="118" height="4" rx="2" fill="#fff" opacity=".2"/>
  <!-- comment card pinned to the finding -->
  <rect x="188" y="72" width="116" height="52" rx="8" fill="#0ea5e9" opacity=".14"/>
  <rect x="188" y="72" width="116" height="52" rx="8" fill="none" stroke="#38bdf8" stroke-opacity=".5"/>
  <text x="200" y="90" font-family="monospace" font-size="8.5" fill="#7dd3fc" fill-opacity=".95">git.go:412</text>
  <rect x="200" y="98" width="88" height="4" rx="2" fill="#fff" opacity=".3"/>
  <rect x="200" y="108" width="66" height="4" rx="2" fill="#fff" opacity=".3"/>
  <text x="30" y="140" font-family="monospace" font-size="9" fill="#38bdf8" fill-opacity=".55">defects, not nitpicks</text>
</svg>
